<svg xmlns="http://www.w3.org/2000/svg" xmlns:xlink="http://www.w3.org/1999/xlink" width="500" zoomAndPan="magnify" viewBox="0 0 375 374.999991" height="500" preserveAspectRatio="xMidYMid meet" version="1.0"><defs><g/><clipPath id="ddd082b99f"><path d="M 8 116.230469 L 367 116.230469 L 367 232 L 8 232 Z M 8 116.230469 " clip-rule="nonzero"/></clipPath><clipPath id="0c3898177c"><path d="M 148 167 L 227 167 L 227 246.730469 L 148 246.730469 Z M 148 167 " clip-rule="nonzero"/></clipPath><clipPath id="3d352ed808"><path d="M 130.957031 145.6875 L 244.207031 145.6875 L 244.207031 258.9375 L 130.957031 258.9375 Z M 130.957031 145.6875 " clip-rule="nonzero"/></clipPath></defs><g clip-path="url(#ddd082b99f)"><path fill="#ffffff" d="M 9.046875 116.289062 C 8.132812 120.839844 0.0117188 169.492188 70.914062 170.136719 C 102.695312 170.425781 128.726562 178.007812 149.5625 188.390625 C 150.65625 186.210938 151.929688 184.136719 153.367188 182.195312 C 132.3125 166.640625 103.515625 153.109375 65.054688 149.21875 C 27.203125 145.394531 13.429688 130.269531 9.046875 116.289062 Z M 80.726562 201.824219 C 105.167969 198.242188 126.703125 200.097656 145.164062 204.761719 C 145.328125 201.992188 145.757812 199.289062 146.433594 196.683594 C 126.574219 188.15625 101.863281 182.472656 72.03125 184.070312 C 37.808594 185.90625 23.0625 174.394531 16.835938 162.589844 C 16.777344 166.761719 17.714844 211.046875 80.726562 201.824219 Z M 283.273438 215.132812 C 263.046875 210.335938 244.996094 210.605469 229.503906 213.441406 C 229.140625 215.917969 228.5625 218.332031 227.789062 220.652344 C 241.695312 220.140625 257.128906 221.90625 273.667969 227.492188 C 320.269531 243.230469 328.378906 209.523438 329.039062 206.335938 C 322.304688 214.492188 309.117188 221.257812 283.273438 215.132812 Z M 91.75 215.132812 C 65.910156 221.257812 52.726562 214.492188 45.992188 206.335938 C 46.652344 209.523438 54.761719 243.230469 101.363281 227.492188 C 117.902344 221.90625 133.335938 220.140625 147.242188 220.652344 C 146.46875 218.332031 145.886719 215.917969 145.523438 213.441406 C 130.03125 210.605469 111.984375 210.335938 91.75 215.132812 Z M 303 184.070312 C 273.164062 182.472656 248.457031 188.15625 228.597656 196.683594 C 229.273438 199.289062 229.699219 201.992188 229.867188 204.761719 C 248.328125 200.097656 269.863281 198.242188 294.304688 201.824219 C 357.3125 211.046875 358.25 166.761719 358.195312 162.589844 C 351.972656 174.394531 337.222656 185.90625 303 184.070312 Z M 209.914062 191.734375 C 202.910156 197.980469 197.015625 204.296875 192.125 210.242188 C 198.015625 205.304688 204.707031 200.371094 212.234375 195.730469 C 211.578125 194.328125 210.796875 192.996094 209.914062 191.734375 Z M 165.113281 191.734375 C 164.230469 192.996094 163.453125 194.328125 162.792969 195.730469 C 170.320312 200.371094 177.015625 205.304688 182.90625 210.242188 C 178.019531 204.296875 172.121094 197.980469 165.113281 191.734375 Z M 365.988281 116.289062 C 361.597656 130.269531 347.832031 145.394531 309.980469 149.21875 C 271.515625 153.109375 242.714844 166.640625 221.664062 182.195312 C 223.101562 184.136719 224.375 186.210938 225.464844 188.390625 C 246.304688 178.007812 272.328125 170.425781 304.113281 170.136719 C 375.019531 169.492188 366.898438 120.839844 365.988281 116.289062 Z M 188.230469 221.921875 C 195.929688 217.390625 204.78125 213.035156 214.746094 209.414062 C 214.796875 208.722656 214.832031 208.027344 214.832031 207.324219 C 214.832031 206.046875 214.734375 204.792969 214.566406 203.5625 C 204.078125 209.378906 195.308594 215.820312 188.230469 221.921875 Z M 164.878906 222.578125 C 172.519531 223.964844 179.515625 225.957031 185.753906 228.214844 C 179.253906 224.484375 171.378906 220.730469 162.261719 217.714844 C 162.972656 219.429688 163.847656 221.058594 164.878906 222.578125 Z M 160.199219 207.324219 C 160.199219 208.027344 160.234375 208.722656 160.285156 209.414062 C 170.246094 213.035156 179.097656 217.390625 186.796875 221.921875 C 179.71875 215.820312 170.953125 209.378906 160.460938 203.5625 C 160.292969 204.792969 160.199219 206.046875 160.199219 207.324219 Z M 210.152344 222.578125 C 211.183594 221.058594 212.058594 219.429688 212.765625 217.714844 C 203.652344 220.730469 195.777344 224.484375 189.277344 228.214844 C 195.515625 225.957031 202.511719 223.964844 210.152344 222.578125 " fill-opacity="1" fill-rule="nonzero"/></g><g clip-path="url(#0c3898177c)"><path fill="#303655" d="M 187.515625 237.605469 C 170.765625 237.605469 157.191406 224.046875 157.191406 207.324219 C 157.191406 190.597656 170.765625 177.039062 187.515625 177.039062 C 204.261719 177.039062 217.835938 190.597656 217.835938 207.324219 C 217.835938 224.046875 204.261719 237.605469 187.515625 237.605469 Z M 187.515625 167.945312 C 165.738281 167.945312 148.082031 185.574219 148.082031 207.324219 C 148.082031 229.070312 165.738281 246.703125 187.515625 246.703125 C 209.292969 246.703125 226.945312 229.070312 226.945312 207.324219 C 226.945312 185.574219 209.292969 167.945312 187.515625 167.945312 " fill-opacity="1" fill-rule="nonzero"/></g><g clip-path="url(#3d352ed808)"><path fill="#ffffff" d="M 187.582031 145.6875 C 156.308594 145.6875 130.957031 171.039062 130.957031 202.3125 C 130.957031 233.582031 156.308594 258.9375 187.582031 258.9375 C 218.855469 258.9375 244.207031 233.582031 244.207031 202.3125 C 244.207031 171.039062 218.855469 145.6875 187.582031 145.6875 " fill-opacity="1" fill-rule="nonzero"/></g><g fill="#303655" fill-opacity="1"><g transform="translate(166.347826, 216.477495)"><g><path d="M 36.875 -5.953125 C 37 -4.460938 37.40625 -3.335938 38.09375 -2.578125 C 38.21875 -2.234375 38.445312 -2 38.78125 -1.875 C 39.113281 -1.75 39.578125 -1.648438 40.171875 -1.578125 C 40.609375 -1.523438 40.9375 -1.472656 41.15625 -1.421875 C 41.375 -1.367188 41.5625 -1.273438 41.71875 -1.140625 L 41.6875 0 L 28 0 L 27.953125 -1.140625 L 28.625 -1.359375 C 29.40625 -1.609375 30.03125 -1.835938 30.5 -2.046875 C 30.96875 -2.265625 31.367188 -2.582031 31.703125 -3 C 32.046875 -3.414062 32.21875 -3.960938 32.21875 -4.640625 L 30.84375 -23.46875 L 22.453125 -4.5 C 21.941406 -3.34375 21.410156 -1.84375 20.859375 0 L 19.109375 0 C 18.515625 -1.34375 17.515625 -3.445312 16.109375 -6.3125 C 14.265625 -10.144531 12.789062 -13.25 11.6875 -15.625 C 10.59375 -18.007812 9.585938 -20.335938 8.671875 -22.609375 C 8.578125 -21.367188 8.394531 -19.585938 8.125 -17.265625 C 7.832031 -14.578125 7.613281 -12.320312 7.46875 -10.5 C 7.320312 -8.6875 7.25 -6.882812 7.25 -5.09375 C 7.25 -4.300781 7.394531 -3.675781 7.6875 -3.21875 C 7.976562 -2.757812 8.347656 -2.410156 8.796875 -2.171875 C 9.242188 -1.941406 9.867188 -1.6875 10.671875 -1.40625 L 11.453125 -1.140625 L 11.40625 0 L 0.765625 0 L 0.71875 -1.140625 C 0.84375 -1.179688 1.234375 -1.320312 1.890625 -1.5625 C 2.585938 -1.789062 3.140625 -2.007812 3.546875 -2.21875 C 3.960938 -2.4375 4.320312 -2.75 4.625 -3.15625 C 4.925781 -3.570312 5.113281 -4.128906 5.1875 -4.828125 L 6.859375 -21.265625 C 6.960938 -22.328125 7.015625 -23.265625 7.015625 -24.078125 C 7.015625 -24.691406 6.898438 -25.179688 6.671875 -25.546875 C 6.441406 -25.921875 6.148438 -26.191406 5.796875 -26.359375 C 5.453125 -26.535156 4.984375 -26.722656 4.390625 -26.921875 C 3.773438 -27.109375 3.289062 -27.296875 2.9375 -27.484375 L 2.984375 -28.609375 L 11.53125 -28.609375 C 11.8125 -27.421875 12.101562 -26.351562 12.40625 -25.40625 C 12.707031 -24.46875 13.054688 -23.570312 13.453125 -22.71875 L 21.359375 -5.859375 L 29.203125 -23.75 C 29.578125 -24.613281 29.84375 -25.46875 30 -26.3125 C 30.164062 -27.15625 30.25 -27.921875 30.25 -28.609375 L 39.359375 -28.609375 L 39.359375 -27.46875 L 38.953125 -27.328125 C 38.140625 -27.054688 37.492188 -26.800781 37.015625 -26.5625 C 36.535156 -26.332031 36.125 -25.988281 35.78125 -25.53125 C 35.445312 -25.070312 35.28125 -24.488281 35.28125 -23.78125 Z M 36.875 -5.953125 "/></g></g></g></svg>